<svg xmlns="http://www.w3.org/2000/svg" viewBox="0 0 512 512">
  <rect width="512" height="512" rx="120" fill="#f1efe6" />
  <path d="M110 302c0-81 66-147 147-147s145 66 145 147c0 58-34 108-83 132-19 9-39 14-62 14-81 0-147-66-147-146Z" fill="#fb923c" />
  <circle cx="212" cy="250" r="16" fill="#1f2937" />
  <circle cx="304" cy="250" r="16" fill="#1f2937" />
  <path d="M205 322c17 21 37 31 57 31s40-10 57-31" fill="none" stroke="#1f2937" stroke-linecap="round" stroke-width="20" />
  <path d="M158 164l33-60 54 63" fill="#f97316" />
  <path d="M357 164l-33-60-54 63" fill="#f97316" />
</svg>
